<?xml version="1.0" encoding="UTF-8" standalone="no" ?>
<!DOCTYPE svg PUBLIC "-//W3C//DTD SVG 1.1//EN" "http://www.w3.org/Graphics/SVG/1.1/DTD/svg11.dtd">
<svg xmlns="http://www.w3.org/2000/svg" xmlns:xlink="http://www.w3.org/1999/xlink" version="1.1" width="1080" height="1080" viewBox="0 0 1080 1080" xml:space="preserve">
<desc>Created with Fabric.js 5.2.4</desc>
<defs>
</defs>
<g transform="matrix(1 0 0 1 540 540)" id="2fc39eda-a2f1-400a-ba91-b5f94e27276e"  >
</g>
<g transform="matrix(1 0 0 1 540 540)" id="eca3f779-a507-4701-8834-5c848d71ec3f"  >
<rect style="stroke: none; stroke-width: 1; stroke-dasharray: none; stroke-linecap: butt; stroke-dashoffset: 0; stroke-linejoin: miter; stroke-miterlimit: 4; fill: rgb(255,255,255); fill-rule: nonzero; opacity: 1; visibility: hidden;" vector-effect="non-scaling-stroke"  x="-540" y="-540" rx="0" ry="0" width="1080" height="1080" />
</g>
<g transform="matrix(0 0 0 0 0 0)"  >
<g style=""   >
</g>
</g>
<g transform="matrix(8.24 0 0 8.24 551.88 540.08)" id="Ellipse_47"  >
<circle style="stroke: rgb(0,0,0); stroke-width: 1; stroke-dasharray: none; stroke-linecap: butt; stroke-dashoffset: 0; stroke-linejoin: miter; stroke-miterlimit: 4; fill: rgb(226,186,143); fill-rule: nonzero; opacity: 1;" vector-effect="non-scaling-stroke"  cx="0" cy="0" r="48.548" />
</g>
<g transform="matrix(8.24 0 0 8.24 421.94 268.5)" clip-path="url(#CLIPPATH_5)"  >
<clipPath id="CLIPPATH_5" >
	<circle transform="matrix(1 0 0 1 15.77 32.96)" id="Ellipse_48" cx="0" cy="0" r="48.548" />
</clipPath>
<path style="stroke: rgb(0,0,0); stroke-width: 1; stroke-dasharray: none; stroke-linecap: butt; stroke-dashoffset: 0; stroke-linejoin: miter; stroke-miterlimit: 4; fill: rgb(240,245,249); fill-rule: nonzero; opacity: 0.4;" vector-effect="non-scaling-stroke"  transform=" translate(-380.18, -58.53)" d="M 343.209 70.009 C 343.209 70.009 382.709 54.656 405.683 40.284 C 428.657 25.912 426.835 43.195 426.835 43.195 C 426.835 43.195 355.93499999999995 84.968 339.863 82.366 C 323.79100000000005 79.764 343.209 70.009 343.209 70.009 Z" stroke-linecap="round" />
</g>
<g transform="matrix(8.24 0 0 8.24 600.8 632.64)" clip-path="url(#CLIPPATH_6)"  >
<clipPath id="CLIPPATH_6" >
	<circle transform="matrix(1 0 0 1 -5.94 -11.23)" id="Ellipse_48" cx="0" cy="0" r="48.548" />
</clipPath>
<path style="stroke: rgb(0,0,0); stroke-width: 1; stroke-dasharray: none; stroke-linecap: butt; stroke-dashoffset: 0; stroke-linejoin: miter; stroke-miterlimit: 4; fill: rgb(203,167,128); fill-rule: nonzero; opacity: 0.7;" vector-effect="non-scaling-stroke"  transform=" translate(-401.89, -102.72)" d="M 354.237 113.121 C 354.237 113.121 376.31100000000004 134.328 443.12100000000004 86.477 C 459.04900000000004 75.07000000000001 455.54600000000005 87.57000000000001 455.54600000000005 87.57000000000001 C 455.54600000000005 87.57000000000001 375.528 139.842 351.91900000000004 118.76 C 341.69 109.626 354.237 113.121 354.237 113.121 Z" stroke-linecap="round" />
</g>
<g transform="matrix(8.24 0 0 8.24 452.28 922.24)" clip-path="url(#CLIPPATH_7)"  >
<clipPath id="CLIPPATH_7" >
	<circle transform="matrix(1 0 0 1 12.09 -46.38)" id="Ellipse_48" cx="0" cy="0" r="48.548" />
</clipPath>
<path style="stroke: rgb(0,0,0); stroke-width: 1; stroke-dasharray: none; stroke-linecap: butt; stroke-dashoffset: 0; stroke-linejoin: miter; stroke-miterlimit: 4; fill: rgb(203,167,128); fill-rule: nonzero; opacity: 0.4;" vector-effect="non-scaling-stroke"  transform=" translate(-383.86, -137.87)" d="M 433.478 146.049 C 433.478 146.049 419.972 118.578 340.838 140.737 C 321.97200000000004 146.01999999999998 329.533 135.46699999999998 329.533 135.46699999999998 C 329.533 135.46699999999998 422.592 113.66699999999999 437.582 141.539 C 444.077 153.618 433.478 146.049 433.478 146.049 Z" stroke-linecap="round" />
</g>
<g transform="matrix(8.24 0 0 8.24 465.18 420.74)" clip-path="url(#CLIPPATH_8)"  >
<clipPath id="CLIPPATH_8" >
	<circle transform="matrix(1 0 0 1 10.53 14.48)" id="Ellipse_48" cx="0" cy="0" r="48.548" />
</clipPath>
<path style="stroke: rgb(0,0,0); stroke-width: 1; stroke-dasharray: none; stroke-linecap: butt; stroke-dashoffset: 0; stroke-linejoin: miter; stroke-miterlimit: 4; fill: rgb(240,245,249); fill-rule: nonzero; opacity: 0.2;" vector-effect="non-scaling-stroke"  transform=" translate(-385.43, -77)" d="M 344.156 87.014 C 344.156 87.014 410.665 79.491 439.256 62.93899999999999 C 467.8469999999999 46.386999999999986 445.876 68.05499999999999 445.876 68.05499999999999 C 445.876 68.05499999999999 404.647 79.79199999999999 343.856 92.732 C 283.065 105.67200000000001 344.156 87.014 344.156 87.014 Z" stroke-linecap="round" />
</g>
<g transform="matrix(8.24 0 0 8.24 721.11 591.69)"  >
<path style="stroke: rgb(0,0,0); stroke-width: 1; stroke-dasharray: none; stroke-linecap: butt; stroke-dashoffset: 0; stroke-linejoin: miter; stroke-miterlimit: 4; fill: rgb(0,0,0); fill-rule: nonzero; opacity: 0.1;" vector-effect="non-scaling-stroke"  transform=" translate(-416.72, -97.75)" d="M 395.951 140.034 C 416.033556409585 140.0335076350229 434.0427782626123 127.66774119934117 441.256629331371 108.92555816362318 C 448.47048040012976 90.1833751279052 443.3996542993561 68.93411693028571 428.5 55.468999999999994 C 436.60348059489877 64.36820743813918 441.0742752829383 75.98320999985097 441.029 88.01899999999999 C 440.899 114.90100000000001 415.45799999999997 139.695 388.95 139.53300000000002" stroke-linecap="round" />
</g>
</svg>